<svg width="24" height="25" viewBox="0 0 24 25" fill="none" xmlns="http://www.w3.org/2000/svg">
<path d="M9.47369 20.6C10.144 21.1598 11.0299 21.5 12 21.5C12.9701 21.5 13.856 21.1598 14.5263 20.6M4.02527 14.6546C3.8459 15.8723 4.64674 16.7174 5.62695 17.1386C9.38526 18.7541 14.6147 18.7541 18.3731 17.1386C19.3533 16.7174 20.1541 15.8723 19.9747 14.6546C19.8653 13.9058 19.3204 13.283 18.9171 12.6746C18.3891 11.8673 18.3368 10.988 18.336 10.0511C18.3368 6.434 15.5006 3.5 12 3.5C8.49937 3.5 5.66316 6.434 5.66316 10.052C5.66316 10.988 5.61095 11.8682 5.08211 12.6746C4.67958 13.283 4.13558 13.9058 4.02527 14.6546Z" stroke="white" stroke-linecap="round" stroke-linejoin="round"/>
</svg>
